#!OML:ASF F:\VICON\USERDATA\INSTALL\rory3\rory3.ASF
:FULLY-SPECIFIED
:DEGREES
448
root 1.01364 24.2416 0.854238 -164.62 13.7432 183.052
lowerback 17.5035 1.9616 -0.211365
upperback 1.99708 2.94476 1.27502
thorax -7.7387 1.56942 0.769957
lowerneck -23.8493 1.10107 -2.98201
upperneck 27.2835 2.73105 2.30892
head 13.044 1.43919 1.94576
rclavicle 0 -9.54166e-015
rhumerus 49.6456 25.0414 -65.41
rradius 84.7015
rwrist 50.37
rhand 4.07569 0.821083
rfingers 7.12502
rthumb 29.488 -26.8577
lclavicle 0 -9.54166e-015
lhumerus -6.06893 -6.87841 88.3969
lradius 92.0194
lwrist -37.6611
lhand -36.1358 29.7031
lfingers 7.12502
lthumb -9.24089 59.4805
rfemur -72.4543 -4.40364 40.7021
rtibia 86.0575
rfoot -18.5049 7.19286
rtoes 22.2533
lfemur -17.1356 3.63036 -21.37
ltibia -1.07344e-014
lfoot 16.1056 5.59957
ltoes -16.5845
449
root 1.04355 24.3132 0.834714 -164.595 13.3578 182.967
lowerback 17.637 1.92183 -0.16732
upperback 1.92662 2.90318 1.31127
thorax -7.88753 1.54719 0.787806
lowerneck -23.8012 1.08232 -2.8016
upperneck 27.2662 2.7082 2.07596
head 13.0355 1.41628 1.81971
rclavicle 1.17283e-014 -4.17448e-015
rhumerus 48.5317 25.6616 -66.1681
rradius 85.1932
rwrist 51.0541
rhand 4.15762 0.737192
rfingers 7.12502
rthumb 29.5662 -26.9278
lclavicle 1.17283e-014 -4.17448e-015
lhumerus -6.46894 -6.84006 88.5509
lradius 91.5433
lwrist -37.6004
lhand -36.2324 29.3879
lfingers 7.12502
lthumb -9.334 59.1612
rfemur -71.9351 -4.50094 40.5666
rtibia 85.2867
rfoot -18.7836 6.96987
rtoes 22.3415
lfemur -17.2149 3.31643 -21.0942
ltibia 2.54444e-014
lfoot 17.3933 5.69525
ltoes -16.6056
450
root 1.07435 24.3869 0.81543 -164.642 12.9611 182.841
lowerback 17.7694 1.89423 -0.0855959
upperback 1.91369 2.88626 1.31032
thorax -7.97 1.53709 0.739591
lowerneck -23.7547 0.98574 -2.83214
upperneck 27.2093 2.57434 2.08361
head 13.0066 1.35609 1.80201
rclavicle 1.80894e-014 8.94531e-015
rhumerus 47.6293 25.8987 -66.7064
rradius 85.5783
rwrist 51.6739
rhand 4.45741 0.673382
rfingers 7.12502
rthumb 29.8523 -26.9405
lclavicle 1.80894e-014 8.94531e-015
lhumerus -6.70579 -7.0574 88.6768
lradius 90.9464
lwrist -37.266
lhand -36.8043 29.9383
lfingers 7.12502
lthumb -9.88586 59.6862
rfemur -71.3599 -4.58408 40.3693
rtibia 84.5095
rfoot -19.0247 6.7678
rtoes 22.2265
lfemur -17.2634 2.99392 -20.823
ltibia 3.06128e-014
lfoot 18.7312 5.87213
ltoes -15.7367
451
root 1.10483 24.4596 0.792309 -164.653 12.5764 182.787
lowerback 17.8842 1.86708 -0.0165357
upperback 1.86069 2.87066 1.37113
thorax -8.09052 1.52785 0.7646
lowerneck -23.6565 0.919443 -2.87621
upperneck 27.1765 2.50446 2.05921
head 12.9756 1.31959 1.78558
rclavicle 6.36111e-015 -6.95746e-015
rhumerus 46.8902 25.997 -66.9208
rradius 85.9409
rwrist 52.1359
rhand 4.93191 0.568605
rfingers 7.12502
rthumb 30.305 -26.963
lclavicle 6.36111e-015 -6.95746e-015
lhumerus -6.82114 -7.25575 88.7945
lradius 90.1412
lwrist -37.0173
lhand -37.1866 30.5206
lfingers 7.12502
lthumb -10.2547 60.2506
rfemur -70.75 -4.62276 40.1982
rtibia 83.7146
rfoot -19.1885 6.70755
rtoes 22.8356
lfemur -17.339 2.70964 -20.4684
ltibia 1.66979e-014
lfoot 20.3292 5.8114
ltoes -16.2077
452
root 1.13494 24.526 0.766891 -164.664 12.1273 182.629
lowerback 17.5337 1.8356 0.204223
upperback 2.1312 2.87758 1.27967
thorax -7.5893 1.53337 0.556513
lowerneck -23.9042 0.778552 -2.87673
upperneck 26.9909 2.24599 2.14121
head 12.9565 1.20861 1.7692
rclavicle -9.54166e-015 -9.54166e-015
rhumerus 46.43 25.623 -66.9803
rradius 86.3535
rwrist 52.464
rhand 5.1951 0.551291
rfingers 7.12502
rthumb 30.556 -26.9338
lclavicle -9.54166e-015 -9.54166e-015
lhumerus -6.17833 -7.69431 88.7059
lradius 89.0016
lwrist -36.6566
lhand -37.424 30.217
lfingers 7.12502
lthumb -10.4837 59.9356
rfemur -70.1864 -4.69255 39.8937
rtibia 82.9244
rfoot -19.3719 6.70855
rtoes 23.4003
lfemur -17.485 2.33827 -20.1966
ltibia -2.06736e-014
lfoot 22.011 5.859
ltoes -16.8102
453
root 1.1641 24.6012 0.743504 -164.693 11.6626 182.463
lowerback 17.4473 1.79648 0.278376
upperback 2.1855 2.84379 1.27704
thorax -7.47919 1.51776 0.523644
lowerneck -24.0597 0.652719 -2.94779
upperneck 27.041 2.08742 2.16753
head 13.0126 1.13377 1.76683
rclavicle 5.38706e-014 1.59028e-015
rhumerus 45.6317 25.6592 -67.1543
rradius 86.678
rwrist 52.7491
rhand 4.86972 0.407112
rfingers 7.12502
rthumb 30.2457 -27.1354
lclavicle 5.38706e-014 1.59028e-015
lhumerus -5.96476 -8.04217 88.7202
lradius 87.838
lwrist -36.0787
lhand -37.8192 29.7031
lfingers 7.12502
lthumb -10.8649 59.4021
rfemur -69.6047 -4.77754 39.5775
rtibia 82.1094
rfoot -19.5975 6.57875
rtoes 23.249
lfemur -17.5553 1.95365 -19.9132
ltibia 2.0276e-014
lfoot 23.6497 6.14796
ltoes -17.064
454
root 1.19644 24.6977 0.719334 -164.713 11.275 182.359
lowerback 17.4136 1.77659 0.25253
upperback 2.16148 2.82096 1.37527
thorax -7.49289 1.50908 0.649384
lowerneck -24.0881 0.567523 -3.15622
upperneck 27.1535 2.05437 2.19216
head 13.0633 1.10338 1.80962
rclavicle 1.59028e-015 2.0276e-014
rhumerus 44.7747 25.9497 -67.314
rradius 86.9879
rwrist 53.0635
rhand 4.65375 0.172964
rfingers 7.12502
rthumb 30.0397 -27.4071
lclavicle 1.59028e-015 2.0276e-014
lhumerus -6.04771 -8.16893 88.8867
lradius 86.9834
lwrist -35.6936
lhand -38.0812 29.3682
lfingers 7.12502
lthumb -11.1176 59.0537
rfemur -68.8664 -4.77225 39.2941
rtibia 81.201
rfoot -19.7959 6.39478
rtoes 23.0233
lfemur -17.4368 1.66248 -19.5619
ltibia 3.10104e-014
lfoot 25.1868 6.4495
ltoes -17.4217
455
root 1.22873 24.7639 0.690546 -164.816 10.8715 182.195
lowerback 17.4326 1.73126 0.0916865
upperback 2.17168 2.74989 1.54022
thorax -7.50712 1.48425 0.933062
lowerneck -24.141 0.55 -3.32237
upperneck 27.3085 2.14926 2.08671
head 13.135 1.11484 1.81884
rclavicle 2.8625e-014 1.19271e-014
rhumerus 44.0248 26.3964 -67.3913
rradius 87.2342
rwrist 53.316
rhand 4.44687 -0.144525
rfingers 7.12502
rthumb 29.8423 -27.7602
lclavicle 2.8625e-014 1.19271e-014
lhumerus -6.15194 -8.10655 89.1737
lradius 86.2889
lwrist -35.4607
lhand -38.1247 29.4626
lfingers 7.12502
lthumb -11.1596 59.1459
rfemur -68.1832 -4.73898 38.9345
rtibia 80.4189
rfoot -20.02 6.18729
rtoes 22.7066
lfemur -17.4839 1.346 -19.2739
ltibia -3.65764e-014
lfoot 26.7472 6.85674
ltoes -16.5716
456
root 1.25922 24.8287 0.665339 -164.939 10.4012 181.932
lowerback 17.4544 1.65607 -0.044423
upperback 2.18873 2.63716 1.62959
thorax -7.50867 1.43718 1.13198
lowerneck -24.2599 0.506163 -3.48573
upperneck 27.3589 2.18958 1.98568
head 13.1788 1.09946 1.81695
rclavicle -3.35946e-014 -5.68524e-014
rhumerus 43.3614 26.7314 -67.5027
rradius 87.3726
rwrist 53.4709
rhand 4.23222 -0.268939
rfingers 7.12502
rthumb 29.6374 -27.9213
lclavicle -3.35946e-014 -5.68524e-014
lhumerus -6.22898 -8.16967 89.3302
lradius 85.5452
lwrist -35.1968
lhand -38.1254 29.5396
lfingers 7.12502
lthumb -11.1603 59.2228
rfemur -67.5653 -4.84043 38.5254
rtibia 79.6693
rfoot -20.1926 5.97662
rtoes 22.6594
lfemur -17.5287 0.92691 -19.0965
ltibia -2.3059e-014
lfoot 28.0805 6.91361
ltoes -15.7815
457
root 1.29095 24.8955 0.639002 -164.939 9.92593 181.72
lowerback 17.1011 1.53971 0.0806721
upperback 2.32253 2.50003 1.53051
thorax -7.15751 1.36925 0.99941
lowerneck -24.4426 0.456932 -3.49658
upperneck 27.242 2.10117 1.99671
head 13.1703 1.05498 1.80549
rclavicle -1.39149e-014 4.85035e-014
rhumerus 42.7797 26.8279 -67.8878
rradius 87.4836
rwrist 53.7982
rhand 4.12654 -0.493337
rfingers 7.12502
rthumb 29.5365 -28.1635
lclavicle -1.39149e-014 4.85035e-014
lhumerus -6.03592 -8.40451 89.1287
lradius 84.8006
lwrist -35.0143
lhand -38.1056 29.4861
lfingers 7.12502
lthumb -11.1411 59.1703
rfemur -67.0227 -4.90578 38.1934
rtibia 78.9355
rfoot -20.4121 5.83858
rtoes 22.837
lfemur -17.6308 0.501553 -18.9081
ltibia -4.33351e-014
lfoot 29.0141 6.64222
ltoes -16.2277
458
root 1.3213 24.9643 0.610635 -164.982 9.50461 181.491
lowerback 16.9098 1.48649 0.0514595
upperback 2.30961 2.41802 1.52264
thorax -7.06573 1.32887 1.03171
lowerneck -24.4475 0.428672 -3.57266
upperneck 27.3065 2.08766 2.03924
head 13.1971 1.04916 1.8348
rclavicle -2.5842e-014 5.1684e-015
rhumerus 41.9149 27.1009 -68.2203
rradius 87.5912
rwrist 54.188
rhand 3.85168 -0.765893
rfingers 7.12502
rthumb 29.2741 -28.4822
lclavicle -2.5842e-014 5.1684e-015
lhumerus -6.13817 -8.61858 89.1946
lradius 84.1265
lwrist -34.9414
lhand -37.8511 29.5874
lfingers 7.12502
lthumb -10.8956 59.2847
rfemur -66.4402 -4.87441 37.7856
rtibia 78.2194
rfoot -20.7289 5.58168
rtoes 22.4508
lfemur -18.5801 0.125986 -18.8777
ltibia 1.90542
lfoot 28.5912 6.26234
ltoes -16.7624
